<svg version="1.1" id="Layer_1" xmlns="http://www.w3.org/2000/svg" xmlns:xlink="http://www.w3.org/1999/xlink" x="0px" y="0px"
	 width="100%" viewBox="0 0 500 500" enable-background="new 0 0 500 500" xml:space="preserve">
<path fill="#000000" opacity="1.000000" stroke="none" 
	d="
M245.000000,501.000000 
	C163.333359,501.000000 82.166702,501.000000 1.000044,501.000000 
	C1.000029,334.333405 1.000029,167.666779 1.000015,1.000133 
	C167.666565,1.000089 334.333130,1.000089 500.999756,1.000044 
	C500.999847,167.666519 500.999847,334.333038 500.999939,500.999786 
	C415.833344,501.000000 330.666656,501.000000 245.000000,501.000000 
M295.548035,304.460541 
	C295.548035,304.460541 295.317474,304.794403 294.851654,304.738464 
	C294.773071,305.174927 294.694458,305.611420 294.137634,306.564484 
	C290.514282,312.840302 286.890900,319.116089 283.267517,325.391907 
	C283.652008,325.702881 284.036469,326.013855 284.420959,326.324860 
	C285.378265,325.863342 286.447205,325.547699 287.273621,324.915161 
	C290.959259,322.094116 294.656219,319.277466 298.192444,316.274719 
	C301.221710,313.702484 303.665649,313.388062 306.662567,316.589478 
	C310.093353,320.254395 314.370239,322.494812 319.634460,320.317993 
	C328.345337,316.716034 337.043762,313.082092 345.696075,309.342865 
	C346.639282,308.935181 347.245026,307.746613 348.508514,306.384827 
	C348.453186,304.663727 348.397858,302.942596 348.575775,300.380371 
	C348.518951,299.513184 348.462128,298.645966 348.683380,296.915436 
	C348.732056,293.760162 348.772217,290.604767 348.831909,287.449707 
	C348.886993,284.538361 347.416779,281.048370 351.859436,279.496613 
	C353.949951,281.982483 355.993286,284.412292 358.036652,286.842072 
	C358.543823,286.635345 359.051025,286.428619 359.558197,286.221893 
	C357.960724,279.949097 356.549774,273.621063 354.714417,267.418671 
	C352.798370,260.943604 348.875366,254.652740 348.618896,248.170990 
	C347.753845,226.308945 348.177551,204.397339 347.941315,182.506470 
	C347.920624,180.587112 346.679138,178.680908 345.726440,176.275711 
	C345.173950,176.165375 344.621490,176.055038 344.104584,175.956131 
	C344.104584,175.956131 344.122009,175.920090 343.834351,175.262787 
	C342.769318,174.887543 341.704285,174.512299 340.483521,174.034149 
	C340.483521,174.034149 340.297821,174.053299 339.897125,173.407913 
	C323.220490,166.972321 306.543854,160.536713 288.676727,153.641693 
	C289.671570,159.038040 290.661652,162.728516 290.959503,166.474045 
	C291.289062,170.618622 290.985138,174.813599 291.001221,179.001358 
	C291.001221,179.001358 290.980499,178.959671 290.391571,179.218124 
	C290.181213,179.821762 289.970856,180.425400 289.183228,181.355545 
	C285.726440,186.339066 282.207489,191.280807 278.825287,196.314468 
	C270.968506,208.007553 263.177704,219.744980 254.931870,230.849075 
	C243.806976,217.045029 232.684586,203.238953 221.556427,189.437531 
	C211.476913,176.936676 201.086105,164.654175 194.034470,149.341400 
	C193.014374,149.220184 191.994278,149.098969 191.000000,148.998779 
	C191.000000,148.998779 190.978058,148.972275 190.238510,148.983337 
	C188.957489,149.658920 187.508240,150.133743 186.423111,151.043106 
	C179.992081,156.432434 173.646881,161.924149 167.269531,167.377579 
	C165.622604,168.785919 163.963898,170.180481 161.925949,171.948013 
	C161.810089,172.081985 161.694214,172.215958 161.437439,172.334244 
	C161.437439,172.334244 161.582260,172.512650 161.042847,172.805511 
	C155.888107,174.214142 154.009323,178.546097 151.497452,183.315216 
	C151.441101,184.549393 151.384750,185.783569 151.102142,187.922653 
	C151.134583,192.296539 151.167023,196.670410 151.105011,201.783310 
	C151.143723,202.525238 151.182434,203.267151 151.042496,204.921982 
	C151.082932,209.276138 151.123352,213.630280 151.081467,218.854370 
	C151.129425,220.888428 151.177383,222.922470 151.056412,225.860382 
	C151.114868,228.921280 151.173325,231.982178 151.137100,235.677307 
	C151.166397,236.102707 151.195694,236.528107 151.053604,237.713287 
	C151.079987,238.488480 151.106369,239.263672 151.044495,240.967392 
	C151.025513,261.407623 150.988235,281.847870 151.023834,302.288025 
	C151.026550,303.847473 151.545135,305.406036 152.023239,307.514526 
	C152.348450,307.934631 152.673660,308.354736 153.361130,309.369080 
	C169.649673,322.399231 185.909088,335.466187 202.272125,348.402130 
	C203.895706,349.685638 206.151794,350.169037 208.779160,350.497070 
	C208.777145,345.340546 208.775116,340.184052 208.827393,334.222839 
	C208.811478,333.144104 208.795578,332.065399 209.003021,330.074829 
	C208.936127,322.713654 208.869232,315.352509 208.881607,307.239288 
	C208.873093,306.486115 208.864594,305.732971 209.025757,304.330536 
	C208.965591,303.891174 208.905426,303.451843 208.906143,302.181091 
	C208.876846,300.793091 208.847549,299.405121 208.996002,297.350891 
	C208.934143,296.899628 208.872284,296.448364 208.876511,295.340698 
	C208.854721,294.901855 208.832932,294.462982 209.008682,293.274048 
	C208.931839,292.508728 208.854980,291.743408 208.842346,290.327484 
	C208.832077,289.891968 208.821808,289.456451 209.023209,288.129486 
	C208.949753,285.071869 208.876297,282.014252 208.873550,278.320557 
	C208.854858,277.894806 208.836166,277.469025 209.024475,276.156677 
	C209.350571,274.290588 209.676666,272.424530 210.701279,270.961639 
	C222.384232,285.204437 234.074142,299.441498 245.746399,313.693085 
	C249.865555,318.722504 250.288986,318.736053 254.532455,313.896606 
	C260.117523,307.527222 265.852234,301.284393 271.294830,294.796112 
	C276.710663,288.339691 281.844635,281.646851 287.013885,275.029877 
	C287.013885,275.029877 287.051270,275.114380 287.692200,274.887573 
	C290.908630,272.038788 294.125092,269.190002 297.322968,267.480255 
	C297.604279,270.335632 297.885590,273.190979 298.002930,276.888702 
	C299.126282,281.686920 300.249634,286.485107 301.197510,291.961304 
	C300.931091,293.366486 300.664642,294.771637 299.701172,297.070007 
	C299.475739,297.373016 299.250305,297.675995 298.918243,297.696075 
	C298.918243,297.696075 298.718567,297.917297 298.718567,297.917297 
	C298.718567,297.917297 298.999573,298.023224 298.700043,298.566895 
	C298.598297,298.747070 298.496552,298.927246 297.876099,298.728058 
	C297.332214,300.158539 296.788361,301.589020 296.138519,303.101868 
	C296.138519,303.101868 296.100189,303.230469 295.716705,303.355713 
	C295.518127,303.609497 295.524780,303.858032 295.548035,304.460541 
z"/>
<path fill="#FDC50A" opacity="1.000000" stroke="none" 
	d="
M340.297821,174.053299 
	C340.297821,174.053299 340.483521,174.034149 340.719543,174.412704 
	C342.011017,175.167542 343.066528,175.543823 344.122009,175.920090 
	C344.122009,175.920090 344.104584,175.956131 344.107117,176.271362 
	C344.728607,177.058029 345.347565,177.529465 346.009949,178.452759 
	C346.060303,181.929932 346.067291,184.955246 345.734375,188.040878 
	C345.623840,190.412491 345.853241,192.723755 346.089355,195.483582 
	C346.089966,198.629044 346.083832,201.325958 345.693420,204.022659 
	C339.518738,206.000519 336.296600,217.782730 342.245850,222.329834 
	C342.609924,219.135834 343.058868,216.634064 343.135986,214.120911 
	C343.214630,211.558121 342.050446,208.569641 346.107941,208.438751 
	C346.122253,215.888855 346.387421,222.881943 346.043793,229.844971 
	C345.621094,238.410950 345.342896,247.073914 343.772614,255.464844 
	C342.524048,262.136627 339.427887,268.462677 337.083282,275.207886 
	C336.994415,275.655396 336.974213,275.837219 336.594666,276.089935 
	C335.578949,277.811218 334.215973,279.594696 334.493683,281.069153 
	C334.709137,282.213043 336.868073,283.225891 338.352142,283.840881 
	C340.594879,284.770233 343.002106,285.302673 345.308929,286.415894 
	C345.545715,292.734650 345.889069,298.639893 346.000793,304.549500 
	C346.018188,305.469177 345.200806,306.779541 344.385223,307.269104 
	C342.028442,308.683838 339.475494,309.771881 336.892395,310.827148 
	C336.508911,310.822998 336.232605,310.979858 335.610809,311.183197 
	C332.202026,312.500854 329.138763,313.772003 325.852020,315.122314 
	C325.345734,315.366943 325.143799,315.601929 324.711243,316.074585 
	C323.272583,316.534943 322.145447,316.827118 321.012756,316.708221 
	C320.914581,314.743835 320.821930,313.190552 320.708801,311.293152 
	C318.165527,313.169495 316.116058,314.681519 314.066620,316.193573 
	C313.641907,315.673187 313.217194,315.152802 312.792480,314.632416 
	C314.451141,312.800903 316.109802,310.969421 317.008453,309.977112 
	C316.784973,306.696442 316.162659,304.290222 316.584564,302.083679 
	C317.135040,299.204681 315.912964,298.926575 313.524841,298.884491 
	C313.199005,297.744873 313.079620,296.868378 313.315430,295.927795 
	C316.393036,292.350891 314.473846,291.285156 311.065125,290.572723 
	C311.046631,288.775635 311.062469,287.392426 311.489197,286.001953 
	C317.652527,285.241974 314.248474,280.836395 314.900024,278.135956 
	C315.576599,275.331635 313.444916,274.878784 311.161713,274.511444 
	C311.347076,254.707001 311.582062,235.367004 312.191772,215.958282 
	C314.949371,213.257996 314.746674,211.230713 311.143555,209.575439 
	C311.120209,207.782028 311.140503,206.401108 311.562134,205.009583 
	C317.217682,204.553772 314.423462,200.521988 314.911560,198.076508 
	C315.488251,195.186829 313.320160,194.905823 311.103668,194.580017 
	C311.318054,192.100693 311.567352,190.024277 312.216125,187.953552 
	C314.072845,186.353729 316.295685,184.960541 316.813354,183.094376 
	C317.653137,180.067062 317.375000,176.729660 317.485382,174.903656 
	C319.893433,172.694687 321.485809,171.233932 323.401611,169.950745 
	C325.151459,170.429749 326.577942,170.731201 328.002869,171.449707 
	C328.181061,177.734924 328.451019,177.903900 333.565887,175.284851 
	C334.402802,174.856308 335.209961,174.369690 336.454712,173.933228 
	C338.018280,173.988785 339.158051,174.021042 340.297821,174.053299 
z"/>
<path fill="#0940AE" opacity="1.000000" stroke="none" 
	d="
M151.224976,236.953506 
	C151.195694,236.528107 151.166397,236.102707 151.543182,235.233109 
	C153.261032,231.397095 154.450989,228.014267 151.225342,224.956528 
	C151.177383,222.922470 151.129425,220.888428 151.368256,218.109695 
	C151.050934,212.927963 154.577423,208.356720 151.221146,204.009079 
	C151.182434,203.267151 151.143723,202.525238 151.476196,201.324326 
	C152.637253,199.912994 153.427109,198.960663 154.191452,198.039108 
	C156.060226,199.206360 157.671570,200.212830 159.361221,201.388702 
	C159.604019,201.753845 159.800858,201.908401 160.007233,202.019135 
	C159.984421,202.016479 159.988174,201.970703 160.012283,202.368256 
	C162.991730,210.193542 165.947067,217.621292 168.917191,225.063690 
	C168.931976,225.078339 168.900772,225.105850 168.915558,225.452911 
	C169.594376,227.217834 170.258392,228.635727 170.934448,230.066391 
	C170.946503,230.079178 170.909668,230.081024 170.924942,230.465668 
	C174.243225,240.966049 177.546234,251.081818 180.847565,261.412476 
	C180.845871,261.627380 180.920181,262.050690 180.929260,262.437103 
	C181.132523,263.627106 181.173111,264.510925 181.544464,265.221985 
	C185.675247,273.131775 189.759857,281.068390 194.056564,288.888031 
	C197.411865,294.994324 200.959930,301.000854 204.629135,306.923584 
	C205.411423,308.186340 206.524994,311.224854 208.802338,307.991333 
	C208.869232,315.352509 208.936127,322.713654 208.665848,330.194092 
	C208.244751,328.498657 208.209915,326.680145 208.066528,324.870178 
	C207.781876,321.277130 208.563797,317.004486 206.884415,314.240265 
	C203.327942,308.386414 198.474457,303.320557 194.137390,297.913391 
	C194.121902,297.895264 194.077835,297.876923 193.992554,297.652405 
	C193.717331,297.146149 193.455338,296.974182 193.123108,296.891479 
	C193.124969,296.871002 193.123947,296.829803 193.068420,296.502441 
	C191.442291,294.653503 189.871674,293.131897 188.190674,291.296661 
	C184.917831,287.375153 181.309143,284.064148 178.674454,280.105011 
	C169.904144,266.925842 161.483521,253.513947 152.936371,239.834351 
	C152.370911,238.636124 151.797943,237.794815 151.224976,236.953506 
z"/>
<path fill="#EBF5F9" opacity="1.000000" stroke="none" 
	d="
M194.012650,150.051376 
	C201.086105,164.654175 211.476913,176.936676 221.556427,189.437531 
	C232.684586,203.238953 243.806976,217.045029 255.168259,231.458954 
	C256.263306,234.444672 257.121948,236.820526 257.922913,239.480835 
	C258.132233,240.256821 258.399231,240.748337 258.706329,241.572601 
	C259.063019,242.736954 259.379608,243.568588 259.707153,244.745728 
	C260.296112,247.380951 260.874115,249.670670 261.128479,251.972458 
	C259.020203,250.292450 257.005920,248.783630 255.486465,246.879883 
	C240.574295,228.196457 225.815063,209.390625 210.851303,190.748886 
	C205.914886,184.599121 200.510666,178.824875 195.270081,172.840515 
	C195.219818,172.802124 195.110809,172.866318 195.114532,172.469421 
	C193.738205,164.372437 192.358139,156.672363 190.978058,148.972275 
	C190.978058,148.972275 191.000000,148.998779 191.324310,148.973785 
	C192.436615,149.316315 193.224640,149.683838 194.012650,150.051376 
z"/>
<path fill="#F5C313" opacity="1.000000" stroke="none" 
	d="
M257.980591,239.196381 
	C257.121948,236.820526 256.263306,234.444672 255.382385,231.766632 
	C263.177704,219.744980 270.968506,208.007553 278.825287,196.314468 
	C282.207489,191.280807 285.726440,186.339066 289.778198,181.056274 
	C290.575623,180.157913 290.778076,179.558792 290.980530,178.959671 
	C290.980499,178.959671 291.001221,179.001358 291.357422,178.952728 
	C295.150970,176.232788 294.033997,172.682693 293.533203,169.279358 
	C292.967987,165.438110 292.323700,161.608521 291.498016,156.417206 
	C300.915100,160.329468 308.957550,163.670639 317.001099,167.375824 
	C317.237030,168.680191 317.471924,169.620560 317.706818,170.560913 
	C317.967926,170.539139 318.229065,170.517365 318.490173,170.495590 
	C318.681519,169.620865 318.872864,168.746124 319.425537,167.888000 
	C320.883972,168.527451 321.981110,169.150314 323.078217,169.773178 
	C321.485809,171.233932 319.893433,172.694687 317.485382,174.903656 
	C317.375000,176.729660 317.653137,180.067062 316.813354,183.094376 
	C316.295685,184.960541 314.072845,186.353729 312.224121,187.506409 
	C311.860901,184.047607 311.889160,181.041656 312.281189,177.964890 
	C313.362976,176.247299 314.423767,174.633057 314.585022,172.933441 
	C314.631866,172.439896 312.104431,171.702103 310.539429,171.211212 
	C309.909943,171.649628 309.498077,171.953110 308.741577,172.188919 
	C307.935455,172.170593 307.473969,172.219955 306.668457,172.220871 
	C304.454926,175.026932 302.585480,177.881439 300.543335,180.895279 
	C300.150879,181.280045 299.958282,181.526657 299.481506,181.921204 
	C297.685150,184.592804 296.200134,187.137650 294.431519,189.835205 
	C293.653259,190.900345 293.158569,191.812759 292.370850,192.856918 
	C291.604004,193.899673 291.130249,194.810699 290.344147,195.847076 
	C288.935852,197.893875 287.839905,199.815292 286.455566,201.878952 
	C285.686859,202.937393 285.206573,203.853622 284.409424,204.888763 
	C282.327972,207.950836 280.563324,210.893982 278.601715,214.035217 
	C278.161499,214.731812 277.918274,215.230270 277.373779,215.866211 
	C275.955719,217.904266 274.838928,219.804840 273.435089,221.852325 
	C272.677399,222.922104 272.206726,223.844940 271.437775,224.893921 
	C270.670288,225.938080 270.201080,226.856079 269.431152,227.900101 
	C268.384979,229.320770 267.639526,230.615448 266.619751,232.122986 
	C266.033813,233.385376 265.722229,234.434891 265.372192,235.638214 
	C265.333771,235.792038 265.165192,236.060577 264.815674,236.188522 
	C262.876160,239.011047 261.286163,241.705627 259.696198,244.400208 
	C259.379608,243.568588 259.063019,242.736954 258.803833,241.273468 
	C258.567688,240.159866 258.274139,239.678116 257.980591,239.196381 
z"/>
<path fill="#163281" opacity="1.000000" stroke="none" 
	d="
M190.608276,148.977814 
	C192.358139,156.672363 193.738205,164.372437 194.764618,172.544312 
	C192.018692,174.044052 191.519272,174.995636 192.143127,178.176453 
	C193.644714,185.832489 193.714874,193.769287 194.362442,201.592850 
	C193.803406,201.748062 193.244385,201.903275 192.685349,202.058487 
	C191.839279,201.449951 190.964523,200.877197 190.152390,200.226334 
	C187.472351,198.078461 184.578247,196.131317 182.207565,193.680313 
	C179.112030,190.479935 176.928818,186.201599 173.433899,183.642181 
	C170.390335,181.413239 171.126190,180.175858 172.427811,177.704483 
	C173.729401,175.233215 174.382889,172.420624 175.320480,169.757660 
	C174.538132,169.277924 173.755783,168.798187 172.973419,168.318436 
	C170.120911,171.283127 167.174438,174.164078 164.438812,177.232941 
	C160.721405,181.403198 158.615372,187.652756 151.328400,187.017746 
	C151.384750,185.783569 151.441101,184.549393 151.835403,183.432175 
	C154.929474,184.995346 156.348648,184.793610 159.418533,180.183777 
	C161.000198,177.808670 166.206314,175.993164 162.310608,171.581390 
	C163.963898,170.180481 165.622604,168.785919 167.269531,167.377579 
	C173.646881,161.924149 179.992081,156.432434 186.423111,151.043106 
	C187.508240,150.133743 188.957489,149.658920 190.608276,148.977814 
z"/>
<path fill="#0E338F" opacity="1.000000" stroke="none" 
	d="
M151.215271,187.470200 
	C158.615372,187.652756 160.721405,181.403198 164.438812,177.232941 
	C167.174438,174.164078 170.120911,171.283127 172.973419,168.318436 
	C173.755783,168.798187 174.538132,169.277924 175.320480,169.757660 
	C174.382889,172.420624 173.729401,175.233215 172.427811,177.704483 
	C171.126190,180.175858 170.390335,181.413239 173.433899,183.642181 
	C176.928818,186.201599 179.112030,190.479935 182.207565,193.680313 
	C184.578247,196.131317 187.472351,198.078461 190.152390,200.226334 
	C190.964523,200.877197 191.839279,201.449951 192.685349,202.058487 
	C193.244385,201.903275 193.803406,201.748062 194.362442,201.592850 
	C193.714874,193.769287 193.644714,185.832489 192.143127,178.176453 
	C191.519272,174.995636 192.018692,174.044052 194.760895,172.941223 
	C195.110809,172.866318 195.219818,172.802124 195.195435,173.296387 
	C195.171051,185.050354 195.171051,196.310074 195.171051,206.864151 
	C192.300659,205.943420 189.119354,203.778336 186.413254,204.263580 
	C177.285507,205.900269 168.646835,204.399353 159.988174,201.970703 
	C159.988174,201.970703 159.984421,202.016479 159.930450,201.843475 
	C159.728836,201.453964 159.530975,201.303574 159.282913,201.219284 
	C157.671570,200.212830 156.060226,199.206360 154.191452,198.039108 
	C153.427109,198.960663 152.637253,199.912994 151.523407,200.954819 
	C151.167023,196.670410 151.134583,192.296539 151.215271,187.470200 
z"/>
<path fill="#CDB94D" opacity="1.000000" stroke="none" 
	d="
M297.341553,266.341248 
	C294.125092,269.190002 290.908630,272.038788 287.348389,274.630157 
	C288.037964,272.751465 289.109741,271.153076 290.094208,269.502625 
	C291.147095,267.737457 292.117676,265.923218 293.407623,264.079803 
	C293.866730,263.489807 294.042419,262.950409 294.218109,262.411041 
	C293.776337,262.905396 293.334564,263.399750 292.598450,264.050659 
	C279.950012,277.847229 267.590973,291.482788 255.244461,305.129700 
	C250.979218,309.844147 248.700104,309.914246 244.632706,304.883423 
	C237.668747,296.269958 230.897842,287.500641 224.012131,278.823578 
	C220.100632,273.894440 216.122086,269.018524 212.173737,264.118652 
	C211.594788,264.512268 211.015854,264.905853 210.436905,265.299469 
	C211.452637,267.211395 212.206940,269.331238 213.531815,270.997314 
	C217.965988,276.573486 222.592682,281.997070 227.166824,287.461365 
	C234.071442,295.709625 240.931061,303.997864 248.005005,312.098663 
	C248.720901,312.918488 251.533981,313.267151 252.094254,312.657867 
	C259.948883,304.115936 267.491028,295.287384 275.306458,286.708282 
	C279.023010,282.628571 283.157227,278.929321 287.102234,275.057709 
	C281.844635,281.646851 276.710663,288.339691 271.294830,294.796112 
	C265.852234,301.284393 260.117523,307.527222 254.532455,313.896606 
	C250.288986,318.736053 249.865555,318.722504 245.746399,313.693085 
	C234.074142,299.441498 222.384232,285.204437 210.171997,270.617981 
	C209.148148,270.253601 208.653595,270.232880 208.353729,269.925995 
	C208.343369,268.999573 208.138306,268.359283 207.997589,267.341125 
	C207.887634,265.444336 207.713303,263.925446 207.715057,261.942627 
	C207.950424,260.493591 208.009705,259.508484 208.230942,258.602661 
	C208.635590,258.495117 208.661331,258.281464 208.644592,257.997498 
	C208.819046,257.953979 208.926987,257.610931 209.270020,257.722015 
	C210.091385,257.851776 210.569687,257.870453 211.117035,258.223907 
	C223.169403,273.377594 235.145874,288.202057 247.147614,303.006042 
	C248.249268,304.364929 249.083603,307.187714 251.755569,304.121429 
	C253.420593,302.837769 254.876312,301.705872 256.080231,300.350342 
	C267.984863,286.946686 279.831482,273.491425 291.743805,260.094635 
	C293.184357,258.474579 294.916290,257.113678 296.513184,255.632660 
	C297.014923,255.844910 297.516663,256.057129 298.018372,256.269379 
	C297.792755,259.626678 297.567139,262.983948 297.341553,266.341248 
z"/>
<path fill="#1989E4" opacity="1.000000" stroke="none" 
	d="
M297.332245,266.910767 
	C297.567139,262.983948 297.792755,259.626678 298.018372,256.269379 
	C297.516663,256.057129 297.014923,255.844910 296.513184,255.632660 
	C294.916290,257.113678 293.184357,258.474579 291.743805,260.094635 
	C279.831482,273.491425 267.984863,286.946686 256.080231,300.350342 
	C254.876312,301.705872 253.420593,302.837769 251.615234,303.787048 
	C251.030853,301.992371 250.912949,300.484161 251.110962,299.091125 
	C252.456985,298.800415 253.781509,298.672333 254.469360,297.943451 
	C258.848114,293.303345 263.439789,288.797302 267.267487,283.723663 
	C270.801727,279.039032 277.488129,275.928375 275.890961,267.989594 
	C280.381348,270.018616 282.406586,267.429535 284.613892,264.074799 
	C287.195679,260.150848 290.336334,256.533691 293.648529,253.193970 
	C294.481537,252.354034 297.403931,252.408890 298.480957,253.223221 
	C301.053253,255.168152 303.343689,257.610443 302.121063,261.568542 
	C301.887115,262.325989 303.255829,263.578522 303.885162,264.602631 
	C304.586304,263.647522 305.450623,262.766571 305.930511,261.710846 
	C306.244995,261.019073 306.009857,260.074493 306.009857,259.243134 
	C306.010315,236.129257 306.017090,213.015350 305.991364,189.901505 
	C305.989624,188.354141 305.739899,186.807053 305.565460,184.798630 
	C303.213348,185.693985 301.574585,186.317780 299.959412,186.584625 
	C300.028870,185.514832 300.074738,184.802017 300.069855,184.090637 
	C300.019073,184.092072 300.123871,184.108749 300.474426,184.076691 
	C301.549713,182.687531 302.274475,181.330414 303.003510,179.988251 
	C303.007812,180.003204 302.976776,180.005096 303.326416,179.968414 
	C304.116669,178.944153 304.557312,177.956589 305.002747,176.986328 
	C305.007568,177.003616 304.971710,177.002136 305.300171,177.002274 
	C309.988007,175.679138 306.730865,180.447632 308.838867,181.415680 
	C308.859833,184.917236 308.836273,187.963730 308.559448,191.331635 
	C308.201843,192.470596 308.006378,193.288147 308.006317,194.105698 
	C308.004944,222.976318 308.013702,251.846954 308.067871,280.717499 
	C308.069916,281.815491 308.535492,282.912628 308.809082,284.439087 
	C308.728973,286.594727 308.624817,288.321442 308.322327,290.173859 
	C307.757751,290.594940 307.391541,290.890350 306.950226,290.828552 
	C303.972412,285.662994 301.069672,280.854675 298.166931,276.046356 
	C297.885590,273.190979 297.604279,270.335632 297.332245,266.910767 
z"/>
<path fill="#10ACFA" opacity="1.000000" stroke="none" 
	d="
M152.928864,240.191269 
	C161.483521,253.513947 169.904144,266.925842 178.674454,280.105011 
	C181.309143,284.064148 184.917831,287.375153 188.127228,291.690643 
	C188.718613,295.110138 189.635498,297.406128 193.123947,296.829803 
	C193.123947,296.829803 193.124969,296.871002 193.201141,297.121765 
	C193.467346,297.662476 193.734177,297.830627 194.077835,297.876923 
	C194.077835,297.876923 194.121902,297.895264 194.097351,298.298706 
	C195.119354,301.062897 195.726242,303.779663 197.295303,305.717346 
	C201.926132,311.436005 200.651154,318.382385 201.812347,324.813354 
	C201.872833,325.148346 201.285660,325.600281 200.689575,325.843140 
	C199.301666,324.452271 197.977570,323.354248 197.192749,321.954010 
	C194.789627,317.666412 193.029007,312.956940 190.227097,308.967377 
	C184.257843,300.467865 178.629807,291.806305 171.672989,283.868896 
	C166.162567,277.581787 164.524521,267.950592 160.928131,259.911133 
	C159.518158,256.759308 157.457382,253.898590 155.693008,250.905289 
	C155.121674,251.189041 154.550323,251.472778 153.978989,251.756516 
	C153.978989,260.820984 153.978989,269.885468 153.695816,279.260925 
	C153.274719,289.306183 153.136795,299.040527 152.998871,308.774841 
	C152.673660,308.354736 152.348450,307.934631 151.968094,306.780487 
	C151.975998,284.084869 152.039062,262.123291 152.309586,240.147552 
	C152.517044,240.133362 152.928864,240.191269 152.928864,240.191269 
z"/>
<path fill="#1FCEF9" opacity="1.000000" stroke="none" 
	d="
M153.180008,309.071960 
	C153.136795,299.040527 153.274719,289.306183 154.030716,279.279938 
	C155.095322,278.995667 155.541870,279.003326 155.989777,279.437622 
	C156.002808,284.095917 155.922028,288.331146 156.083282,292.557098 
	C156.130829,293.803345 156.535660,295.324982 157.341904,296.199219 
	C159.780563,298.843506 162.359116,301.398895 165.133942,303.684479 
	C170.425705,308.043213 174.949554,313.071716 176.734482,319.718506 
	C178.229507,325.285614 181.258667,327.507568 186.949203,325.140991 
	C188.601395,327.715149 190.299484,330.360779 191.890686,333.286957 
	C196.100372,338.155823 200.416931,342.744202 204.733490,347.332550 
	C205.497452,346.535309 206.261429,345.738068 207.269577,344.915100 
	C207.513763,344.889343 208.003311,344.850555 208.030670,345.297150 
	C208.076782,347.503754 208.095551,349.263794 208.114319,351.023804 
	C206.151794,350.169037 203.895706,349.685638 202.272125,348.402130 
	C185.909088,335.466187 169.649673,322.399231 153.180008,309.071960 
z"/>
<path fill="#C2A743" opacity="1.000000" stroke="none" 
	d="
M346.074280,187.980545 
	C346.067291,184.955246 346.060303,181.929932 346.026123,178.144897 
	C346.000885,177.179642 346.002777,176.974106 346.004700,176.768585 
	C346.679138,178.680908 347.920624,180.587112 347.941315,182.506470 
	C348.177551,204.397339 347.753845,226.308945 348.618896,248.170990 
	C348.875366,254.652740 352.798370,260.943604 354.714417,267.418671 
	C356.549774,273.621063 357.960724,279.949097 359.558197,286.221893 
	C359.051025,286.428619 358.543823,286.635345 358.036652,286.842072 
	C355.993286,284.412292 353.949951,281.982483 351.859436,279.496613 
	C347.416779,281.048370 348.886993,284.538361 348.831909,287.449707 
	C348.772217,290.604767 348.732056,293.760162 348.383179,296.999146 
	C348.041260,294.457886 348.259216,291.790619 347.841736,289.226837 
	C347.649780,288.047913 346.212189,287.071838 345.339417,286.003784 
	C343.002106,285.302673 340.594879,284.770233 338.352142,283.840881 
	C336.868073,283.225891 334.709137,282.213043 334.493683,281.069153 
	C334.215973,279.594696 335.578949,277.811218 336.601746,276.499634 
	C337.169708,278.807495 336.414307,281.824188 340.095520,280.541809 
	C342.115479,279.838196 344.874786,269.955292 343.838379,266.761566 
	C341.433441,269.703949 339.292694,272.323059 337.151978,274.942200 
	C339.427887,268.462677 342.524048,262.136627 343.772614,255.464844 
	C345.342896,247.073914 345.621094,238.410950 346.043793,229.844971 
	C346.387421,222.881943 346.122253,215.888855 346.122681,208.045074 
	C346.104828,206.128311 346.091278,205.075592 346.077698,204.022873 
	C346.083832,201.325958 346.089966,198.629044 346.331909,195.198730 
	C346.403259,192.303726 346.238770,190.142136 346.074280,187.980545 
M347.132660,261.987396 
	C345.614166,269.118622 347.313721,272.624512 355.128662,277.017914 
	C353.780457,271.687744 352.002441,266.487122 350.040100,261.356995 
	C349.923218,261.051483 348.329132,261.311066 347.132660,261.987396 
z"/>
<path fill="#CDB94D" opacity="1.000000" stroke="none" 
	d="
M345.308929,286.415894 
	C346.212189,287.071838 347.649780,288.047913 347.841736,289.226837 
	C348.259216,291.790619 348.041260,294.457886 348.244141,297.430817 
	C348.462128,298.645966 348.518951,299.513184 348.319763,301.120850 
	C348.044952,303.547668 348.026123,305.233948 348.007294,306.920258 
	C347.245026,307.746613 346.639282,308.935181 345.696075,309.342865 
	C337.043762,313.082092 328.345337,316.716034 319.634460,320.317993 
	C314.370239,322.494812 310.093353,320.254395 306.662567,316.589478 
	C303.665649,313.388062 301.221710,313.702484 298.192444,316.274719 
	C294.656219,319.277466 290.959259,322.094116 287.273621,324.915161 
	C286.447205,325.547699 285.378265,325.863342 284.420959,326.324860 
	C284.036469,326.013855 283.652008,325.702881 283.267517,325.391907 
	C286.890900,319.116089 290.514282,312.840302 294.522339,306.193848 
	C295.043884,305.480286 295.180695,305.137360 295.317505,304.794403 
	C295.317474,304.794403 295.548035,304.460541 295.768616,304.168823 
	C296.133972,303.680054 296.170959,303.464508 296.100189,303.230469 
	C296.100189,303.230469 296.138519,303.101868 296.420837,302.880066 
	C297.267029,301.474670 297.830902,300.291046 298.394775,299.107422 
	C298.496552,298.927246 298.598297,298.747070 298.836975,298.280273 
	C298.973938,297.993683 299.024872,297.979004 299.024872,297.979004 
	C299.250305,297.675995 299.475739,297.373016 300.257172,296.500854 
	C302.148956,294.452728 303.445953,293.188019 304.793030,295.961029 
	C305.790771,298.015045 306.900909,300.014435 307.605103,302.030090 
	C305.727570,300.633362 304.205902,299.244659 301.792419,297.042053 
	C300.238220,300.738464 298.945435,303.813263 297.322845,306.958923 
	C294.480499,310.867950 291.967957,314.706085 289.455414,318.544189 
	C289.904419,318.908905 290.353424,319.273590 290.802399,319.638306 
	C292.558594,318.103363 294.314758,316.568451 296.250061,314.813202 
	C296.953400,314.384735 297.477600,314.176605 298.327515,313.812317 
	C302.112091,310.591339 304.735535,312.145325 307.491791,314.938721 
	C312.875305,320.394775 315.442535,320.701904 321.018280,317.119263 
	C322.145447,316.827118 323.272583,316.534943 324.933960,315.998383 
	C325.747009,315.582367 325.949463,315.345428 326.075500,315.043213 
	C329.138763,313.772003 332.202026,312.500854 335.727905,311.318359 
	C336.460236,311.267395 336.729889,311.127777 336.999573,310.988159 
	C339.475494,309.771881 342.028442,308.683838 344.385223,307.269104 
	C345.200806,306.779541 346.018188,305.469177 346.000793,304.549500 
	C345.889069,298.639893 345.545715,292.734650 345.308929,286.415894 
z"/>
<path fill="#1989E4" opacity="1.000000" stroke="none" 
	d="
M207.933243,267.719025 
	C208.138306,268.359283 208.343369,268.999573 208.332031,270.394318 
	C208.349579,273.113617 208.583527,275.078461 208.817474,277.043274 
	C208.836166,277.469025 208.854858,277.894806 208.611816,278.963501 
	C208.503906,282.744629 208.657715,285.882782 208.811539,289.020935 
	C208.821808,289.456451 208.832077,289.891968 208.621521,290.866333 
	C208.537521,292.278137 208.674347,293.151154 208.811157,294.024139 
	C208.832932,294.462982 208.854721,294.901855 208.668579,295.833923 
	C208.579834,296.890472 208.699051,297.453796 208.818253,298.017120 
	C208.847549,299.405121 208.876846,300.793091 208.709198,302.762482 
	C208.626862,303.889191 208.741486,304.434479 208.856110,304.979797 
	C208.864594,305.732971 208.873093,306.486115 208.841980,307.615295 
	C206.524994,311.224854 205.411423,308.186340 204.629135,306.923584 
	C200.959930,301.000854 197.411865,294.994324 194.056564,288.888031 
	C189.759857,281.068390 185.675247,273.131775 181.544464,265.221985 
	C181.173111,264.510925 181.132523,263.627106 181.283875,262.481476 
	C184.097641,265.312622 186.630493,268.439270 188.979538,271.698334 
	C189.449127,272.349884 189.167175,273.515289 189.321579,274.428558 
	C189.535278,275.692657 189.538467,277.111847 190.145203,278.170319 
	C193.669006,284.317596 197.281372,290.416992 201.012054,296.440765 
	C201.902893,297.879150 203.358307,298.967896 205.297058,300.993896 
	C205.697433,298.588409 205.927643,297.650848 206.000519,296.701202 
	C207.237366,280.582245 204.097321,264.466217 206.739426,248.240631 
	C208.074051,240.044434 206.434891,231.371063 206.282486,222.910873 
	C206.271545,222.303543 207.428299,221.675171 208.048126,221.518677 
	C208.048843,228.437256 207.940735,234.895935 208.078918,241.349335 
	C208.155243,244.912842 208.644653,248.467499 208.940659,252.357742 
	C208.958649,253.130585 208.983810,253.571838 209.009247,254.375427 
	C208.981995,255.695480 208.954498,256.653198 208.927002,257.610931 
	C208.926987,257.610931 208.819046,257.953979 208.596466,258.092224 
	C208.373871,258.230499 208.068970,258.523346 208.068970,258.523346 
	C208.009705,259.508484 207.950424,260.493591 207.580963,262.208832 
	C207.491608,264.532288 207.712418,266.125671 207.933243,267.719025 
z"/>
<path fill="#048AFD" opacity="1.000000" stroke="none" 
	d="
M208.003311,344.850555 
	C208.003311,344.850555 207.513763,344.889343 207.273041,344.481140 
	C206.681656,340.718414 206.330994,337.363892 205.952881,333.668640 
	C204.952225,332.550140 203.979034,331.772308 202.736038,330.780579 
	C201.977509,329.043671 201.488754,327.520721 201.000000,325.997772 
	C201.285660,325.600281 201.872833,325.148346 201.812347,324.813354 
	C200.651154,318.382385 201.926132,311.436005 197.295303,305.717346 
	C195.726242,303.779663 195.119354,301.062897 194.112823,298.316833 
	C198.474457,303.320557 203.327942,308.386414 206.884415,314.240265 
	C208.563797,317.004486 207.781876,321.277130 208.066528,324.870178 
	C208.209915,326.680145 208.244751,328.498657 208.554169,330.649994 
	C208.795578,332.065399 208.811478,333.144104 208.583588,334.951599 
	C208.227631,338.737061 208.115463,341.793823 208.003311,344.850555 
z"/>
<path fill="#CDB94D" opacity="1.000000" stroke="none" 
	d="
M323.401611,169.950745 
	C321.981110,169.150314 320.883972,168.527451 319.230530,167.669724 
	C318.116119,167.293839 317.558075,167.152817 317.000000,167.011810 
	C308.957550,163.670639 300.915100,160.329468 291.498016,156.417206 
	C292.323700,161.608521 292.967987,165.438110 293.533203,169.279358 
	C294.033997,172.682693 295.150970,176.232788 291.335388,178.945343 
	C290.985138,174.813599 291.289062,170.618622 290.959503,166.474045 
	C290.661652,162.728516 289.671570,159.038040 288.676727,153.641693 
	C306.543854,160.536713 323.220490,166.972321 340.097473,173.730606 
	C339.158051,174.021042 338.018280,173.988785 336.209900,173.686508 
	C333.029022,172.621857 330.516724,171.827255 328.004425,171.032639 
	C326.577942,170.731201 325.151459,170.429749 323.401611,169.950745 
z"/>
<path fill="#093CCB" opacity="1.000000" stroke="none" 
	d="
M298.084930,276.467529 
	C301.069672,280.854675 303.972412,285.662994 306.958252,291.147644 
	C306.392151,292.248291 305.624603,293.136047 305.116821,293.006378 
	C303.807587,292.672089 302.613251,291.887848 301.373016,291.283325 
	C300.249634,286.485107 299.126282,281.686920 298.084930,276.467529 
z"/>
<path fill="#467D84" opacity="1.000000" stroke="none" 
	d="
M301.285278,291.622314 
	C302.613251,291.887848 303.807587,292.672089 305.116821,293.006378 
	C305.624603,293.136047 306.392151,292.248291 307.033325,291.504883 
	C307.391541,290.890350 307.757751,290.594940 308.489014,290.528198 
	C309.912262,295.708832 310.970490,300.660767 311.946228,305.689026 
	C311.863708,305.765350 311.752930,305.960907 311.512878,305.774902 
	C310.169067,304.401520 309.065247,303.214203 307.971710,302.021088 
	C307.981995,302.015289 307.960968,302.038177 307.960968,302.038177 
	C306.900909,300.014435 305.790771,298.015045 304.793030,295.961029 
	C303.445953,293.188019 302.148956,294.452728 300.605682,296.054260 
	C300.664642,294.771637 300.931091,293.366486 301.285278,291.622314 
z"/>
<path fill="#CDB94D" opacity="1.000000" stroke="none" 
	d="
M162.118286,171.764709 
	C166.206314,175.993164 161.000198,177.808670 159.418533,180.183777 
	C156.348648,184.793610 154.929474,184.995346 152.130768,183.194702 
	C154.009323,178.546097 155.888107,174.214142 161.369705,172.656570 
	C161.696564,172.507629 161.578339,172.349945 161.578339,172.349945 
	C161.694214,172.215958 161.810089,172.081985 162.118286,171.764709 
z"/>
<path fill="#0940AE" opacity="1.000000" stroke="none" 
	d="
M152.102127,240.161728 
	C152.039062,262.123291 151.975998,284.084869 151.868439,306.505737 
	C151.545135,305.406036 151.026550,303.847473 151.023834,302.288025 
	C150.988235,281.847870 151.025513,261.407623 151.333755,240.511398 
	C151.623016,240.055405 152.102127,240.161728 152.102127,240.161728 
z"/>
<path fill="#0E338F" opacity="1.000000" stroke="none" 
	d="
M151.140869,225.408447 
	C154.450989,228.014267 153.261032,231.397095 151.590515,234.915985 
	C151.173325,231.982178 151.114868,228.921280 151.140869,225.408447 
z"/>
<path fill="#0E338F" opacity="1.000000" stroke="none" 
	d="
M151.131821,204.465530 
	C154.577423,208.356720 151.050934,212.927963 151.409424,217.674728 
	C151.123352,213.630280 151.082932,209.276138 151.131821,204.465530 
z"/>
<path fill="#0940AE" opacity="1.000000" stroke="none" 
	d="
M208.030670,345.297150 
	C208.115463,341.793823 208.227631,338.737061 208.556442,335.353943 
	C208.775116,340.184052 208.777145,345.340546 208.446747,350.760437 
	C208.095551,349.263794 208.076782,347.503754 208.030670,345.297150 
z"/>
<path fill="#0940AE" opacity="1.000000" stroke="none" 
	d="
M208.917374,288.575195 
	C208.657715,285.882782 208.503906,282.744629 208.576477,279.281555 
	C208.876297,282.014252 208.949753,285.071869 208.917374,288.575195 
z"/>
<path fill="#0940AE" opacity="1.000000" stroke="none" 
	d="
M208.920975,276.599976 
	C208.583527,275.078461 208.349579,273.113617 208.137329,270.680481 
	C208.653595,270.232880 209.148148,270.253601 209.822723,270.416382 
	C209.676666,272.424530 209.350571,274.290588 208.920975,276.599976 
z"/>
<path fill="#467D84" opacity="1.000000" stroke="none" 
	d="
M298.135437,298.917725 
	C297.830902,300.291046 297.267029,301.474670 296.473816,302.838867 
	C296.788361,301.589020 297.332214,300.158539 298.135437,298.917725 
z"/>
<path fill="#0E338F" opacity="1.000000" stroke="none" 
	d="
M152.309586,240.147552 
	C152.102127,240.161728 151.623016,240.055405 151.377869,240.047134 
	C151.106369,239.263672 151.079987,238.488480 151.139297,237.333405 
	C151.797943,237.794815 152.370911,238.636124 152.936371,239.834351 
	C152.928864,240.191269 152.517044,240.133362 152.309586,240.147552 
z"/>
<path fill="#C2A743" opacity="1.000000" stroke="none" 
	d="
M348.257904,306.652527 
	C348.026123,305.233948 348.044952,303.547668 348.203186,301.541443 
	C348.397858,302.942596 348.453186,304.663727 348.257904,306.652527 
z"/>
<path fill="#CDB94D" opacity="1.000000" stroke="none" 
	d="
M343.978180,175.591431 
	C343.066528,175.543823 342.011017,175.167542 340.797394,174.464157 
	C341.704285,174.512299 342.769318,174.887543 343.978180,175.591431 
z"/>
<path fill="#F5C313" opacity="1.000000" stroke="none" 
	d="
M345.865570,176.522156 
	C346.002777,176.974106 346.000885,177.179642 345.982758,177.693024 
	C345.347565,177.529465 344.728607,177.058029 344.089294,176.265656 
	C344.621490,176.055038 345.173950,176.165375 345.865570,176.522156 
z"/>
<path fill="#163281" opacity="1.000000" stroke="none" 
	d="
M194.023560,149.696381 
	C193.224640,149.683838 192.436615,149.316315 191.311401,148.963272 
	C191.994278,149.098969 193.014374,149.220184 194.023560,149.696381 
z"/>
<path fill="#0940AE" opacity="1.000000" stroke="none" 
	d="
M208.909912,293.649109 
	C208.674347,293.151154 208.537521,292.278137 208.589417,291.191620 
	C208.854980,291.743408 208.931839,292.508728 208.909912,293.649109 
z"/>
<path fill="#CDB94D" opacity="1.000000" stroke="none" 
	d="
M290.686035,179.088898 
	C290.778076,179.558792 290.575623,180.157913 290.066833,180.893036 
	C289.970856,180.425400 290.181213,179.821762 290.686035,179.088898 
z"/>
<path fill="#467D84" opacity="1.000000" stroke="none" 
	d="
M295.084595,304.766418 
	C295.180695,305.137360 295.043884,305.480286 294.761475,305.935547 
	C294.694458,305.611420 294.773071,305.174927 295.084595,304.766418 
z"/>
<path fill="#0940AE" opacity="1.000000" stroke="none" 
	d="
M208.940933,304.655151 
	C208.741486,304.434479 208.626862,303.889191 208.678741,303.178162 
	C208.905426,303.451843 208.965591,303.891174 208.940933,304.655151 
z"/>
<path fill="#0940AE" opacity="1.000000" stroke="none" 
	d="
M208.907135,297.684021 
	C208.699051,297.453796 208.579834,296.890472 208.635529,296.162109 
	C208.872284,296.448364 208.934143,296.899628 208.907135,297.684021 
z"/>
<path fill="#467D84" opacity="1.000000" stroke="none" 
	d="
M295.908447,303.293091 
	C296.170959,303.464508 296.133972,303.680054 295.862915,303.989197 
	C295.524780,303.858032 295.518127,303.609497 295.908447,303.293091 
z"/>
<path fill="#467D84" opacity="1.000000" stroke="none" 
	d="
M298.971558,297.837524 
	C299.024872,297.979004 298.973938,297.993683 298.986755,298.008453 
	C298.999573,298.023224 298.718567,297.917297 298.718567,297.917297 
	C298.718567,297.917297 298.918243,297.696075 298.971558,297.837524 
z"/>
<path fill="#163281" opacity="1.000000" stroke="none" 
	d="
M161.507889,172.342102 
	C161.578339,172.349945 161.696564,172.507629 161.639404,172.510132 
	C161.582260,172.512650 161.437439,172.334244 161.507889,172.342102 
z"/>
<path fill="#C9C251" opacity="1.000000" stroke="none" 
	d="
M312.028717,305.612732 
	C310.970490,300.660767 309.912262,295.708832 308.687378,290.402527 
	C308.624817,288.321442 308.728973,286.594727 308.953857,283.989441 
	C309.101654,266.012726 309.180603,248.914444 309.139435,231.816452 
	C309.106659,218.214188 308.927094,204.612289 308.812714,191.010223 
	C308.836273,187.963730 308.859833,184.917236 308.967529,180.991821 
	C309.063202,177.494125 309.074738,174.875351 309.086243,172.256592 
	C309.498077,171.953110 309.909943,171.649628 310.600159,171.599411 
	C311.224823,173.913696 311.571136,175.974701 311.917450,178.035721 
	C311.889160,181.041656 311.860901,184.047607 311.824646,187.500702 
	C311.567352,190.024277 311.318054,192.100693 311.051758,195.034119 
	C311.076752,198.934143 311.118744,201.977158 311.160767,205.020187 
	C311.140503,206.401108 311.120209,207.782028 311.083130,209.973022 
	C311.316559,212.531082 311.566803,214.279037 311.817078,216.027008 
	C311.582062,235.367004 311.347076,254.707001 311.094849,274.968567 
	C311.077850,279.263184 311.078064,282.636169 311.078308,286.009186 
	C311.062469,287.392426 311.046631,288.775635 311.059052,290.912781 
	C311.711639,293.108398 312.335938,294.550140 312.960266,295.991882 
	C313.079620,296.868378 313.199005,297.744873 313.566589,299.291931 
	C313.219452,301.845917 312.624084,303.729309 312.028717,305.612732 
z"/>
<path fill="#F5C313" opacity="1.000000" stroke="none" 
	d="
M311.946228,305.689026 
	C312.624084,303.729309 313.219452,301.845917 313.773071,299.555054 
	C315.912964,298.926575 317.135040,299.204681 316.584564,302.083679 
	C316.162659,304.290222 316.784973,306.696442 317.008453,309.977112 
	C316.109802,310.969421 314.451141,312.800903 312.792480,314.632416 
	C313.217194,315.152802 313.641907,315.673187 314.066620,316.193573 
	C316.116058,314.681519 318.165527,313.169495 320.708801,311.293152 
	C320.821930,313.190552 320.914581,314.743835 321.012756,316.708191 
	C315.442535,320.701904 312.875305,320.394775 307.491791,314.938721 
	C304.735535,312.145325 302.112091,310.591339 298.318909,313.483887 
	C297.625763,312.721466 297.266968,312.131378 296.908142,311.541321 
	C296.122711,312.261047 295.337250,312.980743 294.551788,313.700439 
	C295.058167,314.144806 295.564575,314.589142 296.070953,315.033508 
	C294.314758,316.568451 292.558594,318.103363 290.802399,319.638306 
	C290.353424,319.273590 289.904419,318.908905 289.455414,318.544189 
	C291.967957,314.706085 294.480499,310.867950 297.779785,306.995361 
	C301.761383,306.650116 304.956207,306.339355 308.310181,306.306152 
	C309.820587,307.729797 311.257538,309.327454 311.752930,305.960907 
	C311.752930,305.960907 311.863708,305.765350 311.946228,305.689026 
z"/>
<path fill="#F5C313" opacity="1.000000" stroke="none" 
	d="
M345.693420,204.022659 
	C346.091278,205.075592 346.104828,206.128311 346.103577,207.574722 
	C342.050446,208.569641 343.214630,211.558121 343.135986,214.120911 
	C343.058868,216.634064 342.609924,219.135834 342.245850,222.329834 
	C336.296600,217.782730 339.518738,206.000519 345.693420,204.022659 
z"/>
<path fill="#CDB94D" opacity="1.000000" stroke="none" 
	d="
M337.083282,275.207886 
	C339.292694,272.323059 341.433441,269.703949 343.838379,266.761566 
	C344.874786,269.955292 342.115479,279.838196 340.095520,280.541809 
	C336.414307,281.824188 337.169708,278.807495 336.961060,276.428711 
	C336.974213,275.837219 336.994415,275.655396 337.083282,275.207886 
z"/>
<path fill="#F5C313" opacity="1.000000" stroke="none" 
	d="
M311.489197,286.001953 
	C311.078064,282.636169 311.077850,279.263184 311.144470,275.433044 
	C313.444916,274.878784 315.576599,275.331635 314.900024,278.135956 
	C314.248474,280.836395 317.652527,285.241974 311.489197,286.001953 
z"/>
<path fill="#F5C313" opacity="1.000000" stroke="none" 
	d="
M311.562103,205.009583 
	C311.118744,201.977158 311.076752,198.934143 311.086670,195.437012 
	C313.320160,194.905823 315.488251,195.186829 314.911560,198.076508 
	C314.423462,200.521988 317.217682,204.553772 311.562103,205.009583 
z"/>
<path fill="#F5C313" opacity="1.000000" stroke="none" 
	d="
M328.002869,171.449707 
	C330.516724,171.827255 333.029022,172.621857 335.786102,173.663193 
	C335.209961,174.369690 334.402802,174.856308 333.565887,175.284851 
	C328.451019,177.903900 328.181061,177.734924 328.002869,171.449707 
z"/>
<path fill="#F5C313" opacity="1.000000" stroke="none" 
	d="
M312.191772,215.958282 
	C311.566803,214.279037 311.316559,212.531082 311.126770,210.385529 
	C314.746674,211.230713 314.949371,213.257996 312.191772,215.958282 
z"/>
<path fill="#F5C313" opacity="1.000000" stroke="none" 
	d="
M345.734375,188.040878 
	C346.238770,190.142136 346.403259,192.303726 346.325195,194.750183 
	C345.853241,192.723755 345.623840,190.412491 345.734375,188.040878 
z"/>
<path fill="#F5C313" opacity="1.000000" stroke="none" 
	d="
M313.315430,295.927795 
	C312.335938,294.550140 311.711639,293.108398 311.093384,291.326599 
	C314.473846,291.285156 316.393036,292.350891 313.315430,295.927795 
z"/>
<path fill="#F5C313" opacity="1.000000" stroke="none" 
	d="
M336.892395,310.827148 
	C336.729889,311.127777 336.460236,311.267395 336.073425,311.271881 
	C336.232605,310.979858 336.508911,310.822998 336.892395,310.827148 
z"/>
<path fill="#F5C313" opacity="1.000000" stroke="none" 
	d="
M325.852020,315.122314 
	C325.949463,315.345428 325.747009,315.582367 325.245483,315.830200 
	C325.143799,315.601929 325.345734,315.366943 325.852020,315.122314 
z"/>
<path fill="#048AFD" opacity="1.000000" stroke="none" 
	d="
M208.042114,221.056580 
	C207.428299,221.675171 206.271545,222.303543 206.282486,222.910873 
	C206.434891,231.371063 208.074051,240.044434 206.739426,248.240631 
	C204.097321,264.466217 207.237366,280.582245 206.000519,296.701202 
	C205.927643,297.650848 205.697433,298.588409 205.297058,300.993896 
	C203.358307,298.967896 201.902893,297.879150 201.012054,296.440765 
	C197.281372,290.416992 193.669006,284.317596 190.145203,278.170319 
	C189.538467,277.111847 189.535278,275.692657 189.321579,274.428558 
	C189.167175,273.515289 189.449127,272.349884 188.979538,271.698334 
	C186.630493,268.439270 184.097641,265.312622 181.274796,262.095062 
	C180.920181,262.050690 180.845871,261.627380 180.894760,260.943573 
	C180.809158,257.300903 181.218292,254.186066 180.423843,251.416504 
	C178.900360,246.105286 176.835663,240.930710 174.701202,235.822403 
	C173.832535,233.743484 172.196533,231.985199 170.909668,230.081024 
	C170.909668,230.081024 170.946503,230.079178 170.960175,229.666367 
	C170.282822,227.870987 169.591797,226.488419 168.900772,225.105850 
	C168.900772,225.105850 168.931976,225.078339 168.946411,224.625824 
	C168.037399,220.762756 167.467209,217.203156 166.105988,213.977341 
	C164.165405,209.378525 165.388275,207.059052 170.439804,206.986847 
	C172.767456,206.953552 175.103546,206.870743 177.422791,207.016907 
	C182.932449,207.364151 188.558960,205.852402 193.820068,209.523697 
	C196.241119,211.213165 198.694778,208.894958 198.871384,205.951172 
	C199.068497,202.665573 198.563568,199.344040 198.511917,196.035843 
	C198.436417,191.198929 198.492493,186.359955 198.492493,180.066315 
	C204.290359,187.805725 209.199066,194.358231 214.107788,200.910736 
	C215.336975,202.356155 217.310577,203.416763 218.583176,205.030258 
	C227.335571,216.127197 235.918671,227.357437 244.602875,238.508469 
	C249.853653,245.250748 255.019165,252.074677 260.619049,258.517700 
	C261.824860,259.905060 264.733887,259.812042 266.858368,260.400970 
	C267.266907,258.833160 268.054474,257.256622 268.018707,255.699005 
	C267.859192,248.759140 264.777283,241.591980 270.271942,235.178329 
	C271.365204,233.902222 271.519165,231.821411 272.474579,230.065674 
	C273.809814,229.471359 275.188934,229.163391 275.672913,228.333466 
	C277.870392,224.565109 279.847046,220.665512 281.814209,216.768234 
	C282.079742,216.242172 281.840881,215.461548 281.870972,214.600372 
	C281.906433,214.401947 282.036530,214.017456 282.442566,214.015747 
	C284.389313,213.939621 285.930023,213.865204 286.499146,213.837708 
	C287.892151,209.337494 289.008514,205.731018 290.445404,202.022095 
	C291.476440,200.566132 292.186981,199.212631 292.945099,197.646545 
	C292.992645,197.433975 293.203766,197.052887 293.568176,197.030853 
	C294.663452,195.710739 295.394318,194.412628 296.520630,193.081299 
	C298.227875,192.822678 299.539642,192.597290 300.847961,192.372482 
	C300.474792,190.123367 300.211548,188.536942 299.957336,186.953278 
	C299.966370,186.956024 299.935852,186.941605 299.935852,186.941589 
	C301.574585,186.317780 303.213348,185.693985 305.565460,184.798630 
	C305.739899,186.807053 305.989624,188.354141 305.991364,189.901505 
	C306.017090,213.015350 306.010315,236.129257 306.009857,259.243134 
	C306.009857,260.074493 306.244995,261.019073 305.930511,261.710846 
	C305.450623,262.766571 304.586304,263.647522 303.885162,264.602631 
	C303.255829,263.578522 301.887115,262.325989 302.121063,261.568542 
	C303.343689,257.610443 301.053253,255.168152 298.480957,253.223221 
	C297.403931,252.408890 294.481537,252.354034 293.648529,253.193970 
	C290.336334,256.533691 287.195679,260.150848 284.613892,264.074799 
	C282.406586,267.429535 280.381348,270.018616 275.890961,267.989594 
	C277.488129,275.928375 270.801727,279.039032 267.267487,283.723663 
	C263.439789,288.797302 258.848114,293.303345 254.469360,297.943451 
	C253.781509,298.672333 252.456985,298.800415 251.152939,298.753906 
	C250.912460,297.850464 250.945892,297.399506 251.363800,296.870209 
	C252.148056,296.129913 252.963425,295.413635 252.885117,294.814117 
	C251.752975,286.146423 253.532120,276.755768 246.886703,269.416382 
	C244.314560,266.575653 241.598984,263.864716 238.936630,261.079132 
	C238.924515,261.063599 238.907822,261.027863 238.928467,260.662964 
	C237.948669,259.227875 236.948212,258.157745 235.687592,256.872803 
	C233.308548,253.763779 231.189651,250.869522 229.024048,247.623718 
	C222.619598,237.171280 216.261841,227.070404 209.904099,216.969528 
	C209.457474,217.131378 209.010849,217.293228 208.564209,217.455078 
	C208.390182,218.655579 208.216156,219.856079 208.042114,221.056580 
z"/>
<path fill="#1989E4" opacity="1.000000" stroke="none" 
	d="
M272.106262,230.111664 
	C271.519165,231.821411 271.365204,233.902222 270.271942,235.178329 
	C264.777283,241.591980 267.859192,248.759140 268.018707,255.699005 
	C268.054474,257.256622 267.266907,258.833160 266.858368,260.400970 
	C264.733887,259.812042 261.824860,259.905060 260.619049,258.517700 
	C255.019165,252.074677 249.853653,245.250748 244.602875,238.508469 
	C235.918671,227.357437 227.335571,216.127197 218.583176,205.030258 
	C217.310577,203.416763 215.336975,202.356155 214.107788,200.910736 
	C209.199066,194.358231 204.290359,187.805725 198.492493,180.066315 
	C198.492493,186.359955 198.436417,191.198929 198.511917,196.035843 
	C198.563568,199.344040 199.068497,202.665573 198.871384,205.951172 
	C198.694778,208.894958 196.241119,211.213165 193.820068,209.523697 
	C188.558960,205.852402 182.932449,207.364151 177.422791,207.016907 
	C175.103546,206.870743 172.767456,206.953552 170.439804,206.986847 
	C165.388275,207.059052 164.165405,209.378525 166.105988,213.977341 
	C167.467209,217.203156 168.037399,220.762756 168.931641,224.611176 
	C165.947067,217.621292 162.991730,210.193542 160.012283,202.368256 
	C168.646835,204.399353 177.285507,205.900269 186.413254,204.263580 
	C189.119354,203.778336 192.300659,205.943420 195.171051,206.864151 
	C195.171051,196.310074 195.171051,185.050354 195.245697,173.334778 
	C200.510666,178.824875 205.914886,184.599121 210.851303,190.748886 
	C225.815063,209.390625 240.574295,228.196457 255.486465,246.879883 
	C257.005920,248.783630 259.020203,250.292450 261.263672,252.063721 
	C261.722473,252.142899 261.993927,252.322281 262.020996,252.666901 
	C262.605957,253.542664 263.163818,254.073792 263.721710,254.604919 
	C264.189240,253.715271 264.948608,252.865479 265.076477,251.929428 
	C265.848328,246.280029 266.475586,240.610870 267.190186,234.797180 
	C267.229126,234.646011 267.371033,234.367966 267.674286,234.252304 
	C268.311768,233.413467 268.645996,232.690292 268.992462,231.981628 
	C269.004669,231.996124 268.967102,231.992401 269.260101,231.880157 
	C269.730835,231.196854 269.908569,230.625778 270.043091,230.056747 
	C269.999817,230.058792 270.082520,230.085678 270.382874,230.104462 
	C271.073364,230.034317 271.463531,229.945404 271.917236,229.919891 
	C271.980743,229.983322 272.106262,230.111679 272.106262,230.111664 
z"/>
<path fill="#1989E4" opacity="1.000000" stroke="none" 
	d="
M170.924927,230.465668 
	C172.196533,231.985199 173.832535,233.743484 174.701202,235.822403 
	C176.835663,240.930710 178.900360,246.105286 180.423843,251.416504 
	C181.218292,254.186066 180.809158,257.300903 180.896454,260.728668 
	C177.546234,251.081818 174.243225,240.966049 170.924927,230.465668 
z"/>
<path fill="#048AFD" opacity="1.000000" stroke="none" 
	d="
M193.068420,296.502441 
	C189.635498,297.406128 188.718613,295.110138 188.237579,292.004242 
	C189.871674,293.131897 191.442291,294.653503 193.068420,296.502441 
z"/>
<path fill="#1989E4" opacity="1.000000" stroke="none" 
	d="
M168.915558,225.452911 
	C169.591797,226.488419 170.282822,227.870987 170.948135,229.653580 
	C170.258392,228.635727 169.594376,227.217834 168.915558,225.452911 
z"/>
<path fill="#048AFD" opacity="1.000000" stroke="none" 
	d="
M193.992554,297.652405 
	C193.734177,297.830627 193.467346,297.662476 193.199295,297.142242 
	C193.455338,296.974182 193.717331,297.146149 193.992554,297.652405 
z"/>
<path fill="#1989E4" opacity="1.000000" stroke="none" 
	d="
M159.361221,201.388702 
	C159.530975,201.303574 159.728836,201.453964 159.953278,201.846130 
	C159.800858,201.908401 159.604019,201.753845 159.361221,201.388702 
z"/>
<path fill="#C9C251" opacity="1.000000" stroke="none" 
	d="
M259.707153,244.745728 
	C261.286163,241.705627 262.876160,239.011047 264.802673,236.610901 
	C264.725525,240.758392 264.436829,244.631256 263.830994,248.453842 
	C263.616638,249.806396 262.628693,251.036346 261.993927,252.322281 
	C261.993927,252.322281 261.722473,252.142899 261.587280,252.051636 
	C260.874115,249.670670 260.296112,247.380951 259.707153,244.745728 
z"/>
<path fill="#C9C251" opacity="1.000000" stroke="none" 
	d="
M257.922913,239.480835 
	C258.274139,239.678116 258.567688,240.159866 258.763733,240.940735 
	C258.399231,240.748337 258.132233,240.256821 257.922913,239.480835 
z"/>
<path fill="#467D84" opacity="1.000000" stroke="none" 
	d="
M262.020996,252.666901 
	C262.628693,251.036346 263.616638,249.806396 263.830994,248.453842 
	C264.436829,244.631256 264.725525,240.758392 265.152161,236.482971 
	C265.165192,236.060577 265.333771,235.792038 265.657776,235.537460 
	C266.371582,235.171371 266.761414,235.059860 267.151245,234.948334 
	C266.475586,240.610870 265.848328,246.280029 265.076477,251.929428 
	C264.948608,252.865479 264.189240,253.715271 263.721710,254.604919 
	C263.163818,254.073792 262.605957,253.542664 262.020996,252.666901 
z"/>
<path fill="#FDC50A" opacity="1.000000" stroke="none" 
	d="
M312.281189,177.964890 
	C311.571136,175.974701 311.224823,173.913696 310.817810,171.464478 
	C312.104431,171.702103 314.631866,172.439896 314.585022,172.933441 
	C314.423767,174.633057 313.362976,176.247299 312.281189,177.964890 
z"/>
<path fill="#C9C251" opacity="1.000000" stroke="none" 
	d="
M278.798676,213.837112 
	C280.563324,210.893982 282.327972,207.950836 284.554321,205.009171 
	C285.016052,205.010651 285.303406,205.254333 285.221558,205.547577 
	C285.110992,206.242462 285.082306,206.644073 285.026794,207.027237 
	C285.000000,207.008774 285.054077,207.037689 284.739136,207.156708 
	C283.591492,208.843216 282.758820,210.410721 281.959747,211.986176 
	C281.993347,211.994141 281.956146,211.935974 281.672516,212.031693 
	C280.687805,212.828918 279.986694,213.530441 279.163940,214.133148 
	C279.042297,214.034348 278.798676,213.837112 278.798676,213.837112 
z"/>
<path fill="#C9C251" opacity="1.000000" stroke="none" 
	d="
M300.716034,180.735962 
	C302.585480,177.881439 304.454926,175.026932 306.637543,172.538483 
	C306.291046,174.270416 305.631378,175.636276 304.971680,177.002136 
	C304.971710,177.002136 305.007568,177.003616 304.684631,177.084702 
	C303.900055,178.112228 303.438416,179.058670 302.976776,180.005096 
	C302.976776,180.005096 303.007812,180.003204 302.731628,180.053741 
	C302.013306,180.443542 301.571167,180.782806 301.025787,181.025543 
	C300.922516,180.929031 300.716034,180.735962 300.716034,180.735962 
z"/>
<path fill="#467D84" opacity="1.000000" stroke="none" 
	d="
M305.300140,177.002258 
	C305.631378,175.636276 306.291046,174.270416 306.981628,172.586945 
	C307.473969,172.219955 307.935455,172.170593 308.741577,172.188919 
	C309.074738,174.875351 309.063202,177.494125 308.923035,180.536743 
	C306.730865,180.447632 309.988007,175.679138 305.300140,177.002258 
z"/>
<path fill="#C9C251" opacity="1.000000" stroke="none" 
	d="
M294.715088,189.682480 
	C296.200134,187.137650 297.685150,184.592804 299.608582,182.037567 
	C300.046997,182.027145 300.304779,182.255844 300.237030,182.561798 
	C300.154144,183.281433 300.139008,183.695084 300.123871,184.108749 
	C300.123871,184.108749 300.019073,184.092072 299.759033,184.207825 
	C298.771484,185.634903 298.044006,186.946213 297.214874,188.394257 
	C297.113190,188.530991 296.998932,188.852020 296.747131,188.971405 
	C296.384155,189.430130 296.272980,189.769485 296.122803,190.113159 
	C296.083801,190.117477 296.141724,190.170380 295.899567,190.140182 
	C295.657410,190.109985 295.174805,190.175430 295.058716,190.053284 
	C294.942596,189.931137 294.715088,189.682480 294.715088,189.682480 
z"/>
<path fill="#C9C251" opacity="1.000000" stroke="none" 
	d="
M286.743958,201.736725 
	C287.839905,199.815292 288.935852,197.893875 290.490479,195.964294 
	C290.949127,195.956161 291.237549,196.195755 291.137207,196.509613 
	C290.637451,197.831223 290.238037,198.838974 289.850281,199.861755 
	C289.861908,199.876770 289.879883,199.909027 289.587677,199.975693 
	C288.609100,200.758453 287.922760,201.474548 287.111481,202.079132 
	C286.986542,201.967636 286.743958,201.736725 286.743958,201.736725 
z"/>
<path fill="#C9C251" opacity="1.000000" stroke="none" 
	d="
M273.722107,221.705414 
	C274.838928,219.804840 275.955719,217.904266 277.501343,215.969696 
	C277.930145,215.935715 278.183563,216.144653 278.123413,216.453064 
	C278.035675,217.175827 278.008087,217.590164 277.992737,218.003754 
	C278.004974,218.003006 277.997864,217.979584 277.703003,218.085907 
	C277.249298,218.568863 277.090424,218.945496 276.770416,219.480865 
	C276.422058,220.049667 276.234833,220.459763 275.777954,220.967529 
	C275.075562,221.434036 274.642883,221.802872 274.086090,222.057343 
	C273.961975,221.942947 273.722107,221.705414 273.722107,221.705414 
z"/>
<path fill="#FDC50A" opacity="1.000000" stroke="none" 
	d="
M317.001099,167.375824 
	C317.558075,167.152817 318.116119,167.293839 318.869202,167.653137 
	C318.872864,168.746124 318.681519,169.620865 318.490173,170.495590 
	C318.229065,170.517365 317.967926,170.539139 317.706818,170.560913 
	C317.471924,169.620560 317.237030,168.680191 317.001099,167.375824 
z"/>
<path fill="#C9C251" opacity="1.000000" stroke="none" 
	d="
M266.894073,231.910110 
	C267.639526,230.615448 268.384979,229.320770 269.564819,228.010345 
	C269.999237,227.994583 270.265137,228.216827 270.204376,228.525879 
	C270.123260,229.251831 270.102875,229.668762 270.082520,230.085678 
	C270.082520,230.085678 269.999817,230.058792 269.756531,230.177124 
	C269.331207,230.861099 269.149170,231.426758 268.967102,231.992401 
	C268.967102,231.992401 269.004669,231.996124 268.723877,231.980942 
	C268.127197,232.131500 267.811371,232.297226 267.345581,232.324265 
	C267.195679,232.185577 266.894073,231.910110 266.894073,231.910110 
z"/>
<path fill="#C9C251" opacity="1.000000" stroke="none" 
	d="
M267.190186,234.797180 
	C266.761414,235.059860 266.371582,235.171371 265.696167,235.383636 
	C265.722229,234.434891 266.033813,233.385376 266.619751,232.122986 
	C266.894073,231.910110 267.195679,232.185577 267.259094,232.634949 
	C267.338684,233.512192 267.354858,233.940079 267.371033,234.367966 
	C267.371033,234.367966 267.229126,234.646011 267.190186,234.797180 
z"/>
<path fill="#C9C251" opacity="1.000000" stroke="none" 
	d="
M269.865540,227.884338 
	C270.201080,226.856079 270.670288,225.938080 271.551819,224.997162 
	C271.964081,224.974258 272.186554,225.186707 272.130371,225.491211 
	C272.063202,226.204803 272.052216,226.613892 272.020020,227.013977 
	C271.998779,227.004990 272.038818,227.032181 271.769928,227.085083 
	C271.089081,227.497589 270.677094,227.857208 270.265137,228.216827 
	C270.265137,228.216827 269.999237,227.994583 269.865540,227.884338 
z"/>
<path fill="#C9C251" opacity="1.000000" stroke="none" 
	d="
M271.850037,224.871017 
	C272.206726,223.844940 272.677399,222.922104 273.435089,221.852325 
	C273.722107,221.705414 273.961975,221.942947 274.031586,222.369446 
	C274.087585,223.214874 274.073944,223.633804 274.038666,224.030945 
	C274.017029,224.009171 274.052399,224.048965 273.800598,224.116852 
	C273.423065,224.493713 273.297363,224.802689 273.148865,225.124207 
	C273.126068,225.136749 273.142609,225.186050 272.903564,225.155960 
	C272.664551,225.125870 272.186554,225.186707 272.186554,225.186707 
	C272.186554,225.186707 271.964081,224.974258 271.850037,224.871017 
z"/>
<path fill="#C9C251" opacity="1.000000" stroke="none" 
	d="
M284.871155,204.890259 
	C285.206573,203.853622 285.686859,202.937393 286.455566,201.878952 
	C286.743958,201.736725 286.986542,201.967636 287.055359,202.386337 
	C287.103424,203.218903 287.082642,203.632782 287.031555,204.023315 
	C287.001221,204.000000 287.063477,204.046982 286.797546,204.110504 
	C286.122192,204.534134 285.712799,204.894241 285.303406,205.254333 
	C285.303406,205.254333 285.016052,205.010651 284.871155,204.890259 
z"/>
<path fill="#C9C251" opacity="1.000000" stroke="none" 
	d="
M290.802795,195.838943 
	C291.130249,194.810699 291.604004,193.899673 292.495789,192.956314 
	C292.913818,192.923965 293.160767,193.126389 293.155579,193.430054 
	C293.191010,193.932281 293.231659,194.130829 293.201263,194.439331 
	C293.130219,194.549286 293.048370,194.797974 292.774536,194.901581 
	C292.079651,195.402054 291.658600,195.798904 291.237549,196.195755 
	C291.237549,196.195755 290.949127,195.956161 290.802795,195.838943 
z"/>
<path fill="#C9C251" opacity="1.000000" stroke="none" 
	d="
M292.788879,192.824570 
	C293.158569,191.812759 293.653259,190.900345 294.431519,189.835205 
	C294.715088,189.682480 294.942596,189.931137 294.986877,190.352142 
	C294.407654,191.557556 293.784210,192.341965 293.160767,193.126373 
	C293.160767,193.126389 292.913818,192.923965 292.788879,192.824570 
z"/>
<path fill="#C9C251" opacity="1.000000" stroke="none" 
	d="
M277.802612,215.832230 
	C277.918274,215.230270 278.161499,214.731812 278.601715,214.035217 
	C278.798676,213.837112 279.042297,214.034348 279.092468,214.406769 
	C278.822937,215.234344 278.503235,215.689499 278.183533,216.144653 
	C278.183563,216.144653 277.930145,215.935715 277.802612,215.832230 
z"/>
<path fill="#C9C251" opacity="1.000000" stroke="none" 
	d="
M299.919922,181.910797 
	C299.958282,181.526657 300.150879,181.280045 300.543335,180.895294 
	C300.716034,180.735962 300.922516,180.929031 300.940613,181.248688 
	C300.798553,181.852509 300.580566,182.081665 300.304779,182.255844 
	C300.304779,182.255844 300.046997,182.027145 299.919922,181.910797 
z"/>
<path fill="#093CCB" opacity="1.000000" stroke="none" 
	d="
M250.979309,296.948517 
	C250.945892,297.399506 250.912460,297.850464 250.837036,298.638672 
	C250.912949,300.484161 251.030853,301.992371 251.289078,303.835022 
	C249.083603,307.187714 248.249268,304.364929 247.147614,303.006042 
	C235.145874,288.202057 223.169403,273.377594 211.082794,257.900940 
	C210.322693,256.166504 209.665833,255.089813 209.008972,254.013092 
	C208.983810,253.571838 208.958649,253.130585 209.299835,252.389954 
	C210.714798,252.848816 211.963074,253.437027 212.778030,254.394165 
	C216.675354,258.971466 216.906067,258.817322 220.886505,254.456161 
	C223.201965,251.919250 226.316010,250.111221 229.070740,247.975250 
	C231.189651,250.869522 233.308548,253.763779 235.734589,257.188934 
	C236.997101,258.822510 237.952469,259.925171 238.907822,261.027863 
	C238.907822,261.027863 238.924515,261.063599 238.989441,261.418823 
	C246.752762,272.236542 253.549911,283.004578 250.979309,296.948517 
z"/>
<path fill="#FDC50A" opacity="1.000000" stroke="none" 
	d="
M293.124207,264.130432 
	C292.117676,265.923218 291.147095,267.737457 290.094208,269.502625 
	C289.109741,271.153076 288.037964,272.751465 287.027954,274.743561 
	C287.051270,275.114380 287.013885,275.029877 287.058044,275.043793 
	C283.157227,278.929321 279.023010,282.628571 275.306458,286.708282 
	C267.491028,295.287384 259.948883,304.115936 252.094254,312.657867 
	C251.533981,313.267151 248.720901,312.918488 248.005005,312.098663 
	C240.931061,303.997864 234.071442,295.709625 227.166824,287.461365 
	C222.592682,281.997070 217.965988,276.573486 213.531815,270.997314 
	C212.206940,269.331238 211.452637,267.211395 210.436905,265.299469 
	C211.015854,264.905853 211.594788,264.512268 212.173737,264.118652 
	C216.122086,269.018524 220.100632,273.894440 224.012131,278.823578 
	C230.897842,287.500641 237.668747,296.269958 244.632706,304.883423 
	C248.700104,309.914246 250.979218,309.844147 255.244461,305.129700 
	C267.590973,291.482788 279.950012,277.847229 292.656860,264.109222 
	C293.009552,264.011200 293.124207,264.130432 293.124207,264.130432 
z"/>
<path fill="#0940AE" opacity="1.000000" stroke="none" 
	d="
M207.997589,267.341125 
	C207.712418,266.125671 207.491608,264.532288 207.404877,262.672729 
	C207.713303,263.925446 207.887634,265.444336 207.997589,267.341125 
z"/>
<path fill="#0940AE" opacity="1.000000" stroke="none" 
	d="
M209.009232,254.375427 
	C209.665833,255.089813 210.322693,256.166504 211.013779,257.566162 
	C210.569687,257.870453 210.091385,257.851776 209.270035,257.722015 
	C208.954498,256.653198 208.981995,255.695480 209.009232,254.375427 
z"/>
<path fill="#FDC50A" opacity="1.000000" stroke="none" 
	d="
M292.951172,263.952637 
	C293.334564,263.399750 293.776337,262.905396 294.218109,262.411041 
	C294.042419,262.950409 293.866730,263.489807 293.407623,264.079803 
	C293.124207,264.130432 293.009552,264.011200 292.951172,263.952637 
z"/>
<path fill="#0940AE" opacity="1.000000" stroke="none" 
	d="
M208.230942,258.602661 
	C208.068970,258.523346 208.373871,258.230499 208.421997,258.135773 
	C208.661331,258.281464 208.635590,258.495117 208.230942,258.602661 
z"/>
<path fill="#467D84" opacity="1.000000" stroke="none" 
	d="
M308.559448,191.331635 
	C308.927094,204.612289 309.106659,218.214188 309.139435,231.816452 
	C309.180603,248.914444 309.101654,266.012726 308.929810,283.560516 
	C308.535492,282.912628 308.069916,281.815491 308.067871,280.717499 
	C308.013702,251.846954 308.004944,222.976318 308.006317,194.105698 
	C308.006378,193.288147 308.201843,192.470596 308.559448,191.331635 
z"/>
<path fill="#467D84" opacity="1.000000" stroke="none" 
	d="
M300.237030,182.561798 
	C300.580566,182.081665 300.798553,181.852509 301.043884,181.345215 
	C301.571167,180.782806 302.013306,180.443542 302.727325,180.038788 
	C302.274475,181.330414 301.549713,182.687531 300.474426,184.076691 
	C300.139008,183.695084 300.154144,183.281433 300.237030,182.561798 
z"/>
<path fill="#467D84" opacity="1.000000" stroke="none" 
	d="
M297.316528,188.257507 
	C298.044006,186.946213 298.771484,185.634903 299.809814,184.206390 
	C300.074738,184.802017 300.028870,185.514832 299.959412,186.584625 
	C299.935852,186.941605 299.966370,186.956024 299.686432,187.070435 
	C298.709839,187.542404 298.013184,187.899948 297.316528,188.257507 
z"/>
<path fill="#467D84" opacity="1.000000" stroke="none" 
	d="
M303.326416,179.968414 
	C303.438416,179.058670 303.900055,178.112228 304.679810,177.067413 
	C304.557312,177.956589 304.116669,178.944153 303.326416,179.968414 
z"/>
<path fill="#0BC0FB" opacity="1.000000" stroke="none" 
	d="
M200.689575,325.843140 
	C201.488754,327.520721 201.977509,329.043671 202.741074,331.149902 
	C204.004044,332.491913 204.992203,333.250641 205.980347,334.009369 
	C206.330994,337.363892 206.681656,340.718414 207.028854,344.506897 
	C206.261429,345.738068 205.497452,346.535309 204.733490,347.332550 
	C200.416931,342.744202 196.100372,338.155823 191.948074,332.875671 
	C195.112732,323.273590 191.615280,315.633484 186.234818,309.225800 
	C182.643097,304.948364 177.569931,302.014801 178.481171,295.372528 
	C178.512589,295.143555 178.137772,294.824463 177.903183,294.598328 
	C171.117081,288.056244 164.324692,281.520660 156.712234,274.193756 
	C156.348267,276.616089 156.168335,277.813538 155.988403,279.010986 
	C155.541870,279.003326 155.095322,278.995667 154.313889,278.968994 
	C153.978989,269.885468 153.978989,260.820984 153.978989,251.756516 
	C154.550323,251.472778 155.121674,251.189041 155.693008,250.905289 
	C157.457382,253.898590 159.518158,256.759308 160.928131,259.911133 
	C164.524521,267.950592 166.162567,277.581787 171.672989,283.868896 
	C178.629807,291.806305 184.257843,300.467865 190.227097,308.967377 
	C193.029007,312.956940 194.789627,317.666412 197.192749,321.954010 
	C197.977570,323.354248 199.301666,324.452271 200.689575,325.843140 
z"/>
<path fill="#07CFFE" opacity="1.000000" stroke="none" 
	d="
M155.989777,279.437622 
	C156.168335,277.813538 156.348267,276.616089 156.712234,274.193756 
	C164.324692,281.520660 171.117081,288.056244 177.903183,294.598328 
	C178.137772,294.824463 178.512589,295.143555 178.481171,295.372528 
	C177.569931,302.014801 182.643097,304.948364 186.234818,309.225800 
	C191.615280,315.633484 195.112732,323.273590 192.054947,332.595154 
	C190.299484,330.360779 188.601395,327.715149 186.949203,325.140991 
	C181.258667,327.507568 178.229507,325.285614 176.734482,319.718506 
	C174.949554,313.071716 170.425705,308.043213 165.133942,303.684479 
	C162.359116,301.398895 159.780563,298.843506 157.341904,296.199219 
	C156.535660,295.324982 156.130829,293.803345 156.083282,292.557098 
	C155.922028,288.331146 156.002808,284.095917 155.989777,279.437622 
z"/>
<path fill="#F5C313" opacity="1.000000" stroke="none" 
	d="
M347.277527,261.647552 
	C348.329132,261.311066 349.923218,261.051483 350.040100,261.356995 
	C352.002441,266.487122 353.780457,271.687744 355.128662,277.017914 
	C347.313721,272.624512 345.614166,269.118622 347.277527,261.647552 
z"/>
<path fill="#FDC50A" opacity="1.000000" stroke="none" 
	d="
M308.151062,306.028564 
	C304.956207,306.339355 301.761383,306.650116 298.109589,306.924438 
	C298.945435,303.813263 300.238220,300.738464 301.792419,297.042053 
	C304.205902,299.244659 305.727570,300.633362 307.605103,302.030090 
	C307.960968,302.038177 307.981995,302.015289 307.935425,302.420532 
	C307.976257,303.893341 308.063660,304.960968 308.151062,306.028564 
z"/>
<path fill="#FDC50A" opacity="1.000000" stroke="none" 
	d="
M296.250061,314.813202 
	C295.564575,314.589142 295.058167,314.144806 294.551788,313.700439 
	C295.337250,312.980743 296.122711,312.261047 296.908142,311.541321 
	C297.266968,312.131378 297.625763,312.721466 297.993195,313.639984 
	C297.477600,314.176605 296.953400,314.384735 296.250061,314.813202 
z"/>
<path fill="#0245E7" opacity="1.000000" stroke="none" 
	d="
M229.024048,247.623703 
	C226.316010,250.111221 223.201965,251.919250 220.886505,254.456161 
	C216.906067,258.817322 216.675354,258.971466 212.778030,254.394165 
	C211.963074,253.437027 210.714798,252.848816 209.307007,252.058380 
	C208.644653,248.467499 208.155243,244.912842 208.078918,241.349335 
	C207.940735,234.895935 208.048843,228.437256 208.048126,221.518677 
	C208.216156,219.856079 208.390182,218.655579 208.564209,217.455078 
	C209.010849,217.293228 209.457474,217.131378 209.904099,216.969528 
	C216.261841,227.070404 222.619598,237.171280 229.024048,247.623703 
z"/>
<path fill="#10ACFA" opacity="1.000000" stroke="none" 
	d="
M205.952881,333.668640 
	C204.992203,333.250641 204.004044,332.491913 203.010864,331.363831 
	C203.979034,331.772308 204.952225,332.550140 205.952881,333.668640 
z"/>
<path fill="#CDB94D" opacity="1.000000" stroke="none" 
	d="
M308.310181,306.306152 
	C308.063660,304.960968 307.976257,303.893341 307.925110,302.426331 
	C309.065247,303.214203 310.169067,304.401520 311.512878,305.774902 
	C311.257538,309.327454 309.820587,307.729797 308.310181,306.306152 
z"/>
<path fill="#1989E4" opacity="1.000000" stroke="none" 
	d="
M251.363800,296.870209 
	C253.549911,283.004578 246.752762,272.236542 239.001556,261.434357 
	C241.598984,263.864716 244.314560,266.575653 246.886703,269.416382 
	C253.532120,276.755768 251.752975,286.146423 252.885117,294.814117 
	C252.963425,295.413635 252.148056,296.129913 251.363800,296.870209 
z"/>
<path fill="#1989E4" opacity="1.000000" stroke="none" 
	d="
M276.047638,220.869858 
	C276.234833,220.459763 276.422058,220.049667 276.978180,219.592773 
	C277.563995,219.023819 277.780945,218.501709 277.997864,217.979584 
	C277.997864,217.979584 278.004974,218.003006 278.305115,217.930008 
	C279.682037,216.837601 280.758789,215.818176 281.835510,214.798767 
	C281.840881,215.461548 282.079742,216.242172 281.814209,216.768234 
	C279.847046,220.665512 277.870392,224.565109 275.672913,228.333466 
	C275.188934,229.163391 273.809814,229.471359 272.474609,230.065674 
	C272.106262,230.111679 271.980743,229.983322 271.978271,229.569946 
	C271.996826,228.448425 272.017822,227.740311 272.038818,227.032181 
	C272.038818,227.032181 271.998779,227.004990 272.299011,226.911621 
	C272.780365,226.274185 272.961487,225.730118 273.142609,225.186050 
	C273.142609,225.186050 273.126068,225.136749 273.392914,225.043640 
	C273.790619,224.650024 273.921509,224.349487 274.052399,224.048965 
	C274.052399,224.048965 274.017029,224.009171 274.395386,223.996735 
	C275.198364,222.946167 275.622986,221.908005 276.047638,220.869858 
z"/>
<path fill="#1989E4" opacity="1.000000" stroke="none" 
	d="
M290.124908,202.124542 
	C289.008514,205.731018 287.892151,209.337494 286.499146,213.837708 
	C285.930023,213.865204 284.389313,213.939621 282.435486,213.667603 
	C282.000305,212.859451 281.978241,212.397705 281.956177,211.935974 
	C281.956146,211.935974 281.993347,211.994141 282.296082,211.890060 
	C283.417236,210.203217 284.235657,208.620453 285.054077,207.037689 
	C285.054077,207.037689 285.000000,207.008774 285.375092,207.005035 
	C286.187958,206.016525 286.625732,205.031754 287.063477,204.046997 
	C287.063477,204.046982 287.001221,204.000000 287.323822,203.944824 
	C288.403198,203.238571 289.160004,202.587509 289.969574,201.982620 
	C290.022369,202.028793 290.124908,202.124542 290.124908,202.124542 
z"/>
<path fill="#1989E4" opacity="1.000000" stroke="none" 
	d="
M297.214844,188.394257 
	C298.013184,187.899948 298.709839,187.542404 299.677399,187.067688 
	C300.211548,188.536942 300.474792,190.123367 300.847961,192.372482 
	C299.539642,192.597290 298.227875,192.822678 296.459229,193.028076 
	C296.002289,193.008057 295.880707,192.905029 295.933258,192.565094 
	C296.037781,191.540222 296.089752,190.855301 296.141724,190.170380 
	C296.141724,190.170380 296.083801,190.117477 296.365326,189.987442 
	C296.764191,189.522278 296.881561,189.187149 296.998932,188.852020 
	C296.998932,188.852020 297.113190,188.530991 297.214844,188.394257 
z"/>
<path fill="#467D84" opacity="1.000000" stroke="none" 
	d="
M281.672546,212.031693 
	C281.978241,212.397705 282.000305,212.859451 282.029449,213.669312 
	C282.036530,214.017456 281.906433,214.401947 281.870972,214.600357 
	C280.758789,215.818176 279.682037,216.837601 278.292908,217.930756 
	C278.008087,217.590164 278.035675,217.175827 278.123413,216.453064 
	C278.503235,215.689499 278.822937,215.234344 279.214111,214.505569 
	C279.986694,213.530441 280.687805,212.828918 281.672546,212.031693 
z"/>
<path fill="#1989E4" opacity="1.000000" stroke="none" 
	d="
M293.048370,194.797974 
	C293.048370,194.797974 293.130219,194.549286 293.494141,194.358521 
	C294.532257,193.746857 295.206482,193.325958 295.880707,192.905029 
	C295.880707,192.905029 296.002289,193.008057 296.063721,193.061279 
	C295.394318,194.412628 294.663452,195.710739 293.538696,196.655380 
	C293.112671,195.800613 293.080536,195.299286 293.048370,194.797974 
z"/>
<path fill="#1989E4" opacity="1.000000" stroke="none" 
	d="
M238.928467,260.662964 
	C237.952469,259.925171 236.997101,258.822510 235.994751,257.403687 
	C236.948212,258.157745 237.948669,259.227875 238.928467,260.662964 
z"/>
<path fill="#467D84" opacity="1.000000" stroke="none" 
	d="
M292.774536,194.901581 
	C293.080536,195.299286 293.112671,195.800613 293.174286,196.677399 
	C293.203766,197.052887 292.992645,197.433975 292.674377,197.800903 
	C291.516937,198.727478 290.677795,199.287094 289.838623,199.846725 
	C290.238037,198.838974 290.637451,197.831223 291.137207,196.509613 
	C291.658600,195.798904 292.079651,195.402054 292.774536,194.901581 
z"/>
<path fill="#1989E4" opacity="1.000000" stroke="none" 
	d="
M289.850281,199.861755 
	C290.677795,199.287094 291.516937,198.727478 292.626831,198.013489 
	C292.186981,199.212631 291.476440,200.566132 290.445404,202.022095 
	C290.124908,202.124542 290.022369,202.028793 289.996216,201.644241 
	C289.939972,200.809464 289.909912,200.359253 289.879883,199.909027 
	C289.879883,199.909027 289.861908,199.876770 289.850281,199.861755 
z"/>
<path fill="#467D84" opacity="1.000000" stroke="none" 
	d="
M271.769928,227.085083 
	C272.017822,227.740311 271.996826,228.448425 271.914734,229.506516 
	C271.463531,229.945404 271.073364,230.034317 270.382843,230.104462 
	C270.102875,229.668762 270.123260,229.251831 270.204376,228.525879 
	C270.677094,227.857208 271.089081,227.497589 271.769928,227.085083 
z"/>
<path fill="#467D84" opacity="1.000000" stroke="none" 
	d="
M267.674286,234.252304 
	C267.354858,233.940079 267.338684,233.512192 267.408997,232.773621 
	C267.811371,232.297226 268.127197,232.131500 268.711670,231.966446 
	C268.645996,232.690292 268.311768,233.413467 267.674286,234.252304 
z"/>
<path fill="#467D84" opacity="1.000000" stroke="none" 
	d="
M269.260101,231.880157 
	C269.149170,231.426758 269.331207,230.861099 269.799805,230.175079 
	C269.908569,230.625778 269.730835,231.196854 269.260101,231.880157 
z"/>
<path fill="#467D84" opacity="1.000000" stroke="none" 
	d="
M284.739136,207.156708 
	C284.235657,208.620453 283.417236,210.203217 282.262512,211.882111 
	C282.758820,210.410721 283.591492,208.843216 284.739136,207.156708 
z"/>
<path fill="#467D84" opacity="1.000000" stroke="none" 
	d="
M286.797546,204.110519 
	C286.625732,205.031754 286.187958,206.016525 285.401917,207.023499 
	C285.082306,206.644073 285.110992,206.242462 285.221558,205.547592 
	C285.712799,204.894241 286.122192,204.534134 286.797546,204.110519 
z"/>
<path fill="#467D84" opacity="1.000000" stroke="none" 
	d="
M295.933258,192.565094 
	C295.206482,193.325958 294.532257,193.746857 293.565186,194.248566 
	C293.231659,194.130829 293.191010,193.932281 293.155579,193.430054 
	C293.784210,192.341965 294.407654,191.557556 295.102966,190.474274 
	C295.174805,190.175430 295.657410,190.109985 295.899567,190.140182 
	C296.089752,190.855301 296.037781,191.540222 295.933258,192.565094 
z"/>
<path fill="#467D84" opacity="1.000000" stroke="none" 
	d="
M296.747131,188.971405 
	C296.881561,189.187149 296.764191,189.522278 296.404297,189.983124 
	C296.272980,189.769485 296.384155,189.430130 296.747131,188.971405 
z"/>
<path fill="#467D84" opacity="1.000000" stroke="none" 
	d="
M289.587646,199.975693 
	C289.909912,200.359253 289.939972,200.809464 289.943420,201.598068 
	C289.160004,202.587509 288.403198,203.238571 287.354126,203.968140 
	C287.082642,203.632782 287.103424,203.218903 287.180298,202.497833 
	C287.922760,201.474548 288.609100,200.758453 289.587646,199.975693 
z"/>
<path fill="#467D84" opacity="1.000000" stroke="none" 
	d="
M275.777954,220.967529 
	C275.622986,221.908005 275.198364,222.946167 274.416992,224.018524 
	C274.073944,223.633804 274.087585,223.214874 274.155701,222.483841 
	C274.642883,221.802872 275.075562,221.434036 275.777954,220.967529 
z"/>
<path fill="#467D84" opacity="1.000000" stroke="none" 
	d="
M277.703003,218.085907 
	C277.780945,218.501709 277.563995,219.023819 277.139313,219.434036 
	C277.090424,218.945496 277.249298,218.568863 277.703003,218.085907 
z"/>
<path fill="#467D84" opacity="1.000000" stroke="none" 
	d="
M272.903564,225.155960 
	C272.961487,225.730118 272.780365,226.274185 272.320251,226.920624 
	C272.052216,226.613892 272.063202,226.204803 272.130371,225.491211 
	C272.186554,225.186707 272.664551,225.125870 272.903564,225.155960 
z"/>
<path fill="#467D84" opacity="1.000000" stroke="none" 
	d="
M273.800598,224.116852 
	C273.921509,224.349487 273.790619,224.650024 273.415710,225.031097 
	C273.297363,224.802689 273.423065,224.493713 273.800598,224.116852 
z"/>
</svg>